<svg xmlns="http://www.w3.org/2000/svg" width="384" height="246" viewBox="0 0 384 246">
  <g fill="none" fill-rule="evenodd">
    <rect width="384" height="246" fill="#000"/>
    <rect width="384" height="171" y="37" fill="#FFF" style="mix-blend-mode:difference"/>
    <path fill="#FFF" d="M10,0 L35.7623466,0 C55.9428514,0 66.6771625,9.94606182 66.6771625,30.37292 L66.6771625,44.489911 C66.6771625,64.9167691 55.9428514,74.8628309 35.7623466,74.8628309 L10,74.8628309 L10,0 Z M24.1692906,12.8336282 L24.1692906,62.0292028 L35.9770328,62.0292028 C48.1068043,62.0292028 52.5078719,55.8262825 52.5078719,44.9176986 L52.5078719,29.9451324 C52.5078719,19.0365484 48.1068043,12.8336282 35.9770328,12.8336282 L24.1692906,12.8336282 Z M98.2952609,0 L147.673092,0 L147.673092,12.8336282 L112.464552,12.8336282 L112.464552,30.6937607 L144.667485,30.6937607 L144.667485,43.5273888 L112.464552,43.5273888 L112.464552,62.0292028 L148.317151,62.0292028 L148.317151,74.8628309 L98.2952609,74.8628309 L98.2952609,0 Z M179.720563,0 L193.889853,0 L193.889853,62.0292028 L228.669021,62.0292028 L228.669021,74.8628309 L179.720563,74.8628309 L179.720563,0 Z M240.106615,0 L299.789384,0 L299.789384,12.8336282 L277.032645,12.8336282 L277.032645,74.8628309 L262.863354,74.8628309 L262.863354,12.8336282 L240.106615,12.8336282 L240.106615,0 Z M337.418697,0 L360.175436,0 L381,74.8628309 L366.401337,74.8628309 L361.892926,58.1791143 L335.701207,58.1791143 L331.192797,74.8628309 L316.594133,74.8628309 L337.418697,0 Z M339.028844,45.3454862 L358.56529,45.3454862 L349.441125,11.7641591 L348.153008,11.7641591 L339.028844,45.3454862 Z M67.106535,108.455221 C67.106535,119.791593 60.6659483,127.919557 51.0050683,130.807124 L66.2477901,159.682787 L50.5756959,159.682787 L36.7284346,131.98354 L24.1692906,131.98354 L24.1692906,159.682787 L10,159.682787 L10,84.9269031 L43.0616781,84.9269031 C57.2309688,84.9269031 67.106535,94.2312835 67.106535,108.455221 Z M24.1692906,97.7605313 L24.1692906,119.149912 L41.6662177,119.149912 C48.4288337,119.149912 52.9372443,114.978982 52.9372443,108.455221 C52.9372443,101.93146 48.4288337,97.7605313 41.6662177,97.7605313 L24.1692906,97.7605313 Z M139.962895,84.8199562 L162.719635,84.8199562 L183.544198,159.682787 L168.945535,159.682787 L164.437125,142.999071 L138.245406,142.999071 L133.736995,159.682787 L119.138332,159.682787 L139.962895,84.8199562 Z M141.573042,130.165442 L161.109488,130.165442 L151.985324,96.5841154 L150.697206,96.5841154 L141.573042,130.165442 Z M239.54769,84.8199562 L253.716981,84.8199562 L253.716981,159.682787 L239.54769,159.682787 L239.54769,84.8199562 Z M315.731687,84.8199562 L340.849975,84.8199562 L358.024873,146.421371 L359.31299,146.421371 L359.31299,84.8199562 L373.482281,84.8199562 L373.482281,159.682787 L348.363993,159.682787 L331.189095,98.081372 L329.900978,98.081372 L329.900978,159.682787 L315.731687,159.682787 L315.731687,84.8199562 Z M10,169.639912 L35.7623466,169.639912 C55.9428514,169.639912 66.6771625,179.585974 66.6771625,200.012832 L66.6771625,214.129823 C66.6771625,234.556682 55.9428514,244.502743 35.7623466,244.502743 L10,244.502743 L10,169.639912 Z M24.1692906,182.473541 L24.1692906,231.669115 L35.9770328,231.669115 C48.1068043,231.669115 52.5078719,225.466195 52.5078719,214.557611 L52.5078719,199.585045 C52.5078719,188.676461 48.1068043,182.473541 35.9770328,182.473541 L24.1692906,182.473541 Z M101.874598,169.639912 L124.631338,169.639912 L145.455901,244.502743 L130.857238,244.502743 L126.348828,227.819027 L100.157109,227.819027 L95.648698,244.502743 L81.0500349,244.502743 L101.874598,169.639912 Z M103.484745,214.985399 L123.021191,214.985399 L113.897027,181.404072 L112.60891,181.404072 L103.484745,214.985399 Z M164.444528,169.639912 L189.562816,169.639912 L206.737713,231.241328 L208.025831,231.241328 L208.025831,169.639912 L222.195121,169.639912 L222.195121,244.502743 L197.076833,244.502743 L179.901936,182.901328 L178.613818,182.901328 L178.613818,244.502743 L164.444528,244.502743 L164.444528,169.639912 Z M244.189354,198.515576 C244.189354,179.906815 256.319126,168.142656 275.318857,168.142656 C294.318587,168.142656 304.945555,178.623452 304.945555,195.307169 L304.945555,197.873894 L290.776265,197.873894 L290.776265,195.093275 C290.776265,186.537523 285.623795,180.76239 275.318857,180.76239 C264.691889,180.76239 258.358645,188.462567 258.358645,197.873894 L258.358645,216.268761 C258.358645,226.535664 264.262516,233.380266 275.318857,233.380266 C286.589883,233.380266 290.776265,227.498186 290.776265,219.049381 L290.776265,216.268761 L304.945555,216.268761 L304.945555,218.835487 C304.945555,235.412257 295.177332,246 275.318857,246 C256.855842,246 244.189354,235.519204 244.189354,215.62708 L244.189354,198.515576 Z M326.510416,169.639912 L375.888247,169.639912 L375.888247,182.473541 L340.679707,182.473541 L340.679707,200.333673 L372.88264,200.333673 L372.88264,213.167301 L340.679707,213.167301 L340.679707,231.669115 L376.532306,231.669115 L376.532306,244.502743 L326.510416,244.502743 L326.510416,169.639912 Z" style="mix-blend-mode:difference"/>
  </g>
</svg>
