<svg xmlns="http://www.w3.org/2000/svg" width="590" height="378" viewBox="0 0 590 378">
  <g fill="none" fill-rule="evenodd">
    <rect width="590" height="378" fill="#FFF"/>
    <g fill="#FFF">
      <rect width="590" height="263" y="57" style="mix-blend-mode:difference"/>
      <path d="M15,0 L54.5809638,0 C85.5860521,0 102.07812,15.282973 102.07812,46.6705844 L102.07812,68.3625461 C102.07812,99.7501574 85.5860521,115.03313 54.5809638,115.03313 L15,115.03313 L15,0 Z M36.7695301,19.7199652 L36.7695301,95.3131652 L54.9108051,95.3131652 C73.5468423,95.3131652 80.3085902,85.7818487 80.3085902,69.0198783 L80.3085902,46.0132522 C80.3085902,29.2512817 73.5468423,19.7199652 54.9108051,19.7199652 L36.7695301,19.7199652 Z M150.655792,0 L226.519306,0 L226.519306,19.7199652 L172.425322,19.7199652 L172.425322,47.1635835 L221.901526,47.1635835 L221.901526,66.8835487 L172.425322,66.8835487 L172.425322,95.3131652 L227.50883,95.3131652 L227.50883,115.03313 L150.655792,115.03313 L150.655792,0 Z M275.75666,0 L297.52619,0 L297.52619,95.3131652 L350.960491,95.3131652 L350.960491,115.03313 L275.75666,115.03313 L275.75666,0 Z M368.533074,0 L460.228973,0 L460.228973,19.7199652 L425.265789,19.7199652 L425.265789,115.03313 L403.496259,115.03313 L403.496259,19.7199652 L368.533074,19.7199652 L368.533074,0 Z M518.042203,0 L553.005388,0 L585,115.03313 L562.570787,115.03313 L555.644119,89.3971757 L515.403472,89.3971757 L508.476803,115.03313 L486.047591,115.03313 L518.042203,0 Z M520.516013,69.6772104 L550.531577,69.6772104 L536.513319,18.0766348 L534.534271,18.0766348 L520.516013,69.6772104 Z M102.737803,166.650706 C102.737803,184.070009 92.8425621,196.55932 77.9997007,200.996312 L101.418438,245.366234 L77.340018,245.366234 L56.0652499,202.803976 L36.7695301,202.803976 L36.7695301,245.366234 L15,245.366234 L15,130.497437 L65.7955702,130.497437 C87.5651003,130.497437 102.737803,144.794411 102.737803,166.650706 Z M36.7695301,150.217402 L36.7695301,183.08401 L63.6516013,183.08401 C74.0416043,183.08401 80.968273,176.675022 80.968273,166.650706 C80.968273,156.62639 74.0416043,150.217402 63.6516013,150.217402 L36.7695301,150.217402 Z M214.673451,130.333103 L249.636636,130.333103 L281.631248,245.366234 L259.202035,245.366234 L252.275367,219.730279 L212.03472,219.730279 L205.108051,245.366234 L182.678839,245.366234 L214.673451,130.333103 Z M217.147261,200.010314 L247.162826,200.010314 L233.144567,148.409738 L231.165519,148.409738 L217.147261,200.010314 Z M367.674349,130.333103 L389.443879,130.333103 L389.443879,245.366234 L367.674349,245.366234 L367.674349,130.333103 Z M484.722538,130.333103 L523.313978,130.333103 L549.701287,224.988937 L551.680335,224.988937 L551.680335,130.333103 L573.449865,130.333103 L573.449865,245.366234 L534.858426,245.366234 L508.471116,150.710401 L506.492068,150.710401 L506.492068,245.366234 L484.722538,245.366234 L484.722538,130.333103 Z M15,260.666207 L54.5809638,260.666207 C85.5860521,260.666207 102.07812,275.94918 102.07812,307.336791 L102.07812,329.028753 C102.07812,360.416364 85.5860521,375.699337 54.5809638,375.699337 L15,375.699337 L15,260.666207 Z M36.7695301,280.386172 L36.7695301,355.979372 L54.9108051,355.979372 C73.5468423,355.979372 80.3085902,346.448056 80.3085902,329.686085 L80.3085902,306.679459 C80.3085902,289.917489 73.5468423,280.386172 54.9108051,280.386172 L36.7695301,280.386172 Z M156.155043,260.666207 L191.118228,260.666207 L223.11284,375.699337 L200.683628,375.699337 L193.756959,350.063383 L153.516312,350.063383 L146.589644,375.699337 L124.160431,375.699337 L156.155043,260.666207 Z M158.628854,330.343417 L188.644418,330.343417 L174.62616,278.742842 L172.647112,278.742842 L158.628854,330.343417 Z M252.28674,260.666207 L290.87818,260.666207 L317.265489,355.32204 L319.244538,355.32204 L319.244538,260.666207 L341.014068,260.666207 L341.014068,375.699337 L302.422628,375.699337 L276.035319,281.043504 L274.056271,281.043504 L274.056271,375.699337 L252.28674,375.699337 L252.28674,260.666207 Z M374.805747,305.036129 C374.805747,276.442179 393.441784,258.365544 422.632745,258.365544 C451.823705,258.365544 468.150853,274.470183 468.150853,300.106137 L468.150853,304.05013 L446.381323,304.05013 L446.381323,299.777471 C446.381323,286.630828 438.46513,277.756843 422.632745,277.756843 C406.305597,277.756843 396.575277,289.588823 396.575277,304.05013 L396.575277,332.315414 C396.575277,348.091386 405.645914,358.608701 422.632745,358.608701 C439.949416,358.608701 446.381323,349.570383 446.381323,336.588073 L446.381323,332.315414 L468.150853,332.315414 L468.150853,336.259407 C468.150853,361.731029 453.143071,378 422.632745,378 C394.266387,378 374.805747,361.895362 374.805747,331.329416 L374.805747,305.036129 Z M501.282849,260.666207 L577.146363,260.666207 L577.146363,280.386172 L523.05238,280.386172 L523.05238,307.82979 L572.528584,307.82979 L572.528584,327.549756 L523.05238,327.549756 L523.05238,355.979372 L578.135887,355.979372 L578.135887,375.699337 L501.282849,375.699337 L501.282849,260.666207 Z" style="mix-blend-mode:difference"/>
    </g>
  </g>
</svg>
